<svg width="46" height="14" viewBox="0 0 46 14" fill="none" xmlns="http://www.w3.org/2000/svg">
<path fill-rule="evenodd" clip-rule="evenodd" d="M33.4967 0.834C32.6411 1.34573 30.6231 2.54122 29.8698 2.98642C29.4107 3.22801 28.3473 3.3335 27.7459 2.49586C27.7352 2.48073 26.946 1.46223 26.9138 1.42388C26.8912 1.39678 26.381 0.615153 25.2442 0.590716C25.0763 0.586602 24.2412 0.582005 23.4264 1.06035C22.3434 1.69947 19.8245 3.18688 19.8245 3.18688C19.8238 3.18688 19.8238 3.18821 19.8226 3.18821C18.7872 3.80011 17.9805 4.27651 17.9805 4.27651L18.9336 5.48567C19.3795 6.05753 20.385 6.49994 21.2569 5.98289C21.2569 5.98289 24.4788 4.05573 24.4907 4.05017C25.884 3.26079 26.9592 3.26079 27.6728 3.55452C28.3134 3.8341 28.8706 4.53068 28.8706 4.53068C28.8706 4.53068 29.5989 5.46293 29.7274 5.62601C30.1418 6.15286 30.8276 5.94587 30.8276 5.94587C30.8276 5.94587 31.0818 5.91611 31.4649 5.68117C31.4649 5.68117 34.5857 3.81208 34.5877 3.81148C35.5786 3.21095 36.4875 3.0988 36.952 3.14296C38.4069 3.27954 38.8589 4.32938 39.4897 5.06177C39.8612 5.49257 40.1964 5.73719 40.709 5.72485C41.0459 5.71747 41.4264 5.50648 41.4825 5.46838L45.2196 3.24071C45.2196 3.24071 44.8362 2.64417 44.0509 1.71604C43.348 0.887955 42.6015 1.26262 42.0063 1.56712C41.7562 1.69487 40.8502 2.31742 39.9525 2.75172C39.3129 3.06106 38.3942 2.96803 37.8907 2.3254C37.8606 2.28633 37.0461 1.2677 36.9604 1.14237C36.6317 0.717015 35.9902 0.33606 35.1681 0.33606C34.6683 0.33606 34.101 0.476876 33.4967 0.834Z" fill="url(#paint0_linear_28411_3888)"/>
<path fill-rule="evenodd" clip-rule="evenodd" d="M0.820286 9.5435C0.820286 8.87837 0.808574 8.32018 0.773438 7.82248H1.99244L2.04959 8.67755H2.08379C2.36008 8.2257 2.86534 7.69135 3.80782 7.69135C4.54346 7.69135 5.11805 8.11972 5.35897 8.76054H5.38263C5.57834 8.44007 5.80743 8.20283 6.07154 8.03601C6.38214 7.81075 6.73854 7.69135 7.19824 7.69135C8.12889 7.69135 9.07066 8.34414 9.07066 10.1963V13.6029H7.69179V10.4103C7.69179 9.44889 7.37053 8.87837 6.69287 8.87837C6.20939 8.87837 5.85275 9.23513 5.70436 9.6508C5.66946 9.79283 5.63503 9.97103 5.63503 10.136V13.6029H4.25569V10.2554C4.25569 9.44889 3.9459 8.87837 3.29073 8.87837C2.76204 8.87837 2.40623 9.30638 2.2795 9.70912C2.22164 9.85247 2.19845 10.0182 2.19845 10.1841V13.6029H0.820286V9.5435Z" fill="#003A70"/>
<path fill-rule="evenodd" clip-rule="evenodd" d="M14.4419 12.2136C14.4419 12.7356 14.4648 13.2451 14.5224 13.6023H13.2463L13.1547 12.9614H13.1198C12.7753 13.4129 12.1892 13.7329 11.4653 13.7329C10.3388 13.7329 9.70703 12.8908 9.70703 12.0119C9.70703 10.5514 10.9592 9.81605 13.0279 9.82779V9.73246C13.0279 9.35247 12.8783 8.72376 11.8902 8.72376C11.3383 8.72376 10.7635 8.90195 10.3845 9.1508L10.1083 8.20198C10.5228 7.94031 11.2474 7.69073 12.1316 7.69073C13.925 7.69073 14.4419 8.86663 14.4419 10.1243V12.2136ZM13.0624 10.7763C12.0628 10.7523 11.1092 10.9778 11.1092 11.8564C11.1092 12.4256 11.4653 12.6872 11.9137 12.6872C12.4761 12.6872 12.8905 12.3073 13.0165 11.8919C13.0507 11.7851 13.0624 11.666 13.0624 11.5714V10.7763Z" fill="#003A70"/>
<path fill-rule="evenodd" clip-rule="evenodd" d="M15.4211 9.5435C15.4211 8.87837 15.4085 8.32018 15.375 7.82248H16.6151L16.6844 8.68892H16.7184C16.96 8.2384 17.569 7.69135 18.4997 7.69135C19.4768 7.69135 20.488 8.34414 20.488 10.1726V13.6029H19.0747V10.3392C19.0747 9.50769 18.776 8.87837 18.0059 8.87837C17.4428 8.87837 17.0522 9.29392 16.9024 9.73331C16.8572 9.86421 16.8452 10.0426 16.8452 10.2077V13.6029H15.4211V9.5435Z" fill="#003A70"/>
<path fill-rule="evenodd" clip-rule="evenodd" d="M26.6139 5.4989V11.9754C26.6139 12.5688 26.6365 13.2109 26.6596 13.6022H25.3954L25.3388 12.6883H25.3154C24.982 13.3296 24.3029 13.7328 23.4878 13.7328C22.1553 13.7328 21.0977 12.5579 21.0977 10.7774C21.086 8.84233 22.2582 7.69064 23.6026 7.69064C24.3723 7.69064 24.9244 8.02344 25.1768 8.4511H25.2002V5.4989H26.6139ZM25.2009 10.2291C25.2009 10.1116 25.1891 9.96849 25.1669 9.85018C25.0403 9.28038 24.5919 8.81716 23.9483 8.81716C23.0405 8.81716 22.5347 9.64851 22.5347 10.7287C22.5347 11.7848 23.0405 12.5565 23.9368 12.5565C24.5112 12.5565 25.0171 12.1531 25.1549 11.5241C25.1891 11.393 25.2009 11.2507 25.2009 11.0959V10.2291Z" fill="#003A70"/>
<path fill-rule="evenodd" clip-rule="evenodd" d="M27.6133 13.603H29.0397V7.82294H27.6133V13.603Z" fill="#003A70"/>
<path fill-rule="evenodd" clip-rule="evenodd" d="M30.0404 9.68494C30.0404 8.90186 30.0285 8.34319 29.9941 7.82142H31.224L31.269 8.92496H31.3167C31.592 8.10595 32.2472 7.82142 32.8445 7.82142C32.9821 7.82142 33.0625 7.7971 33.1777 7.82142V9.10377C33.0625 9.08006 32.9363 9.05635 32.7639 9.05635C32.086 9.05635 31.626 9.50698 31.4997 10.1594C31.4774 10.2901 31.4542 10.445 31.4542 10.612V13.6022H30.0404V9.68494Z" fill="#003A70"/>
<path fill-rule="evenodd" clip-rule="evenodd" d="M33.832 13.603H35.2563V7.82294H33.832V13.603Z" fill="#003A70"/>
<defs>
<linearGradient id="paint0_linear_28411_3888" x1="17.9805" y1="6.21187" x2="45.2196" y2="6.21187" gradientUnits="userSpaceOnUse">
<stop stop-color="#FFCA06"/>
<stop offset="0.330844" stop-color="#FBAA18"/>
<stop offset="0.694742" stop-color="#FFC907"/>
<stop offset="1" stop-color="#FAA619"/>
</linearGradient>
</defs>
</svg>
