<svg width="46" height="18" viewBox="0 0 46 18" fill="none" xmlns="http://www.w3.org/2000/svg">
<path d="M20.3667 4.1496H21.8772C22.4004 4.1496 22.7884 4.25649 22.7884 4.8319C22.7884 5.42237 22.1993 5.59471 21.7322 5.59471H20.071L20.3667 4.1496ZM15.9941 11.4128H21.476C23.5667 11.4128 25.4121 10.5007 25.4121 8.19769C25.4121 7.31622 24.8517 6.471 23.966 6.28313V6.2577H23.9792C25.1319 5.95116 25.7332 5.15962 25.7332 3.95607C25.7332 2.575 24.9572 1.85316 22.8821 1.85316H17.9756L15.9941 11.4128ZM19.7089 7.37602H21.3272C21.9441 7.37602 22.4686 7.48291 22.4686 8.19487C22.4686 8.96992 21.7463 9.15592 21.2218 9.15592H19.3331L19.7089 7.37602Z" fill="#0069AB"/>
<path d="M27.9247 11.4128H30.8676L32.3415 4.30169H34.992L35.5029 1.85316H27.2542L26.7461 4.30169H29.3966L27.9247 11.4128Z" fill="#0069AB"/>
<path d="M34.5586 11.4128H37.356L38.4668 6.05758H38.4932L40.2463 11.4128H43.1384L45.148 1.85316H42.3478L41.2775 7.07466H41.252L39.458 1.85316H36.5377L34.5586 11.4128Z" fill="#0069AB"/>
<path d="M14.9043 18.0074C14.9924 17.682 14.9561 17.6839 15.1736 16.8062C15.33 15.9412 16.2825 14.6162 17.9621 14.4801C18.5347 14.4118 40.5217 13.4776 45.22 13.1484L45.0792 13.9612C40.6526 14.5333 20.6245 17.2483 14.9043 18.0074Z" fill="#E31C24"/>
<path d="M5.28906 11.4149V13.151L6.79444 12.2818L8.30029 13.151V11.4149L6.79444 10.5443L5.28906 11.4149Z" fill="#A68561"/>
<path d="M11.3107 11.4128V9.672L6.79456 7.06477L2.28125 9.672V11.4128L6.79456 8.80276L11.3107 11.4128Z" fill="#A68561"/>
<path d="M0.773438 3.58926L6.79449 0.112809L12.8165 3.58926V10.5422L11.3106 11.4128V4.45991L6.79449 1.85127L2.27976 4.45991V11.4128L0.773438 10.5422V3.58926Z" fill="#0069AB"/>
<path d="M6.79356 3.59012L9.80432 5.32905V12.281L8.29988 13.1488V6.19687L6.79356 5.32905L5.28912 6.19687V13.1488L3.78516 12.281V5.32905L6.79356 3.59012Z" fill="#0069AB"/>
</svg>
