<svg width="46" height="15" viewBox="0 0 46 15" fill="none" xmlns="http://www.w3.org/2000/svg">
<path d="M7.3266 11.3508C7.3266 10.7957 7.33263 9.31177 7.31895 9.12894C7.33088 6.92087 5.72543 5.36327 4.71118 5.48469C4.00935 5.5456 3.42117 5.83177 3.10536 6.65503C2.81265 7.42228 3.07434 8.44281 4.04753 8.68228C5.08815 8.93945 5.69579 9.15343 6.13555 9.4553C6.67438 9.82486 7.11426 10.531 7.12594 11.3517" fill="#0060AF"/>
<path d="M7.74148 14.7076C5.90661 14.7076 4.02089 14.2557 2.13767 13.3619L2.09146 13.3392L2.06936 13.2921C1.22426 11.5082 0.777344 9.55704 0.777344 7.64808C0.777344 5.74201 1.20592 3.87437 2.05166 2.09287L2.07489 2.04553L2.12198 2.02192C3.86405 1.19666 5.73809 0.778625 7.69376 0.778625C9.51557 0.778625 11.4612 1.244 13.3194 2.12677L13.3671 2.148L13.3891 2.19622C14.2504 4.013 14.7046 5.96365 14.7046 7.84096C14.7046 9.71099 14.2685 11.5803 13.4062 13.3959L13.3835 13.4436L13.3355 13.4657C11.62 14.2778 9.68547 14.7076 7.74148 14.7076ZM2.31197 13.1173C4.14144 13.9778 5.96601 14.4124 7.74148 14.4124C9.62407 14.4124 11.4964 14.0009 13.163 13.2209C13.9909 11.4615 14.4105 9.65072 14.4105 7.84096C14.4105 6.02392 13.9725 4.1338 13.144 2.37051C11.3406 1.52277 9.4573 1.07322 7.69376 1.07322C5.80038 1.07322 3.9856 1.4748 2.29615 2.26704C1.4852 3.99379 1.07244 5.80316 1.07244 7.64808C1.07244 9.49651 1.5014 11.3874 2.31197 13.1173Z" fill="#0060AF"/>
<path d="M6.89134 11.3524C6.89473 10.6408 6.49754 10.0115 5.97842 9.67337C5.51795 9.37451 4.89976 9.17811 3.90246 8.92521C3.59418 8.84635 3.27171 8.67118 3.17187 8.44791C2.9078 8.71399 2.85983 9.31222 2.90629 9.66181C2.96029 10.0664 3.43307 10.7332 4.14494 10.7593C4.57967 10.7768 5.1293 10.6658 5.39288 10.6098C5.84758 10.5116 6.56698 10.7964 6.68151 11.3515" fill="#0060AF"/>
<path d="M7.69314 2.04382C6.48614 2.04382 5.44351 2.83983 5.44728 4.21723C5.45104 5.37552 6.38254 5.9956 6.71493 6.43849C7.21722 7.10591 7.48909 7.89588 7.51734 9.10465C7.53932 10.0667 7.53819 11.0166 7.54308 11.3533H7.80955C7.80491 11.001 7.79285 9.99258 7.80666 9.07489C7.82474 7.86575 8.1064 7.10591 8.60894 6.43849C8.94422 5.9956 9.87496 5.37552 9.87697 4.21723C9.88149 2.83983 8.83949 2.04382 7.63349 2.04382" fill="#0060AF"/>
<path d="M7.99951 11.3508C7.99951 10.7957 7.99323 9.31177 8.00667 9.12894C7.99487 6.92087 9.59931 5.36327 10.6144 5.48469C11.3163 5.5456 11.9038 5.83177 12.2205 6.65503C12.513 7.42228 12.2498 8.44281 11.2777 8.68228C10.2366 8.93945 9.6297 9.15343 9.18881 9.4553C8.65061 9.82486 8.24149 10.531 8.22893 11.3517" fill="#0060AF"/>
<path d="M8.43557 11.3524C8.4318 10.6408 8.82887 10.0115 9.34648 9.67337C9.80884 9.37451 10.4278 9.17811 11.4242 8.92521C11.7331 8.84635 12.0552 8.67118 12.1533 8.44791C12.4186 8.71399 12.4665 9.31222 12.42 9.66181C12.3649 10.0664 11.8933 10.7332 11.1827 10.7593C10.7481 10.7768 10.1956 10.6658 9.93315 10.6098C9.48021 10.5116 8.7588 10.7964 8.64377 11.3515" fill="#0060AF"/>
<path d="M8.8068 13.6491L8.65234 12.5221L9.02517 12.4656C9.11596 12.4531 9.22646 12.4689 9.27066 12.5258C9.31951 12.5852 9.33445 12.6343 9.34387 12.7122C9.35794 12.8085 9.33006 12.9199 9.22156 12.9754V12.9788C9.34274 12.9788 9.41595 13.0658 9.43717 13.2127C9.44031 13.2437 9.44948 13.3187 9.44031 13.3812C9.4157 13.53 9.32692 13.5779 9.17711 13.5988L8.8068 13.6491ZM9.04677 13.4473C9.09097 13.441 9.1358 13.4386 9.17083 13.4163C9.22445 13.3812 9.21956 13.3063 9.21215 13.2506C9.19344 13.1283 9.16154 13.0819 9.03182 13.1011L8.95033 13.1136L9.00194 13.4536L9.04677 13.4473ZM8.96866 12.9265C9.01801 12.9185 9.08494 12.9126 9.11282 12.8658C9.12738 12.8345 9.1461 12.8096 9.13379 12.7401C9.1186 12.6575 9.09122 12.6064 8.98649 12.6263L8.88892 12.642L8.92735 12.9308" fill="#0060AF"/>
<path d="M10.4226 12.9717C10.4254 12.9927 10.4288 13.0161 10.4301 13.037C10.4602 13.2426 10.4226 13.4128 10.1915 13.4596C9.84994 13.5254 9.78451 13.3132 9.72436 13.0161L9.69234 12.8553C9.64525 12.571 9.62504 12.3558 9.95806 12.2895C10.1458 12.2552 10.2699 12.3299 10.3215 12.5168C10.3295 12.5447 10.3395 12.5723 10.3433 12.6003L10.139 12.6425C10.1154 12.5723 10.0841 12.4469 9.99221 12.4574C9.82721 12.4772 9.88171 12.6825 9.89866 12.7683L9.96006 13.0769C9.97852 13.1702 10.0152 13.3192 10.158 13.2904C10.2739 13.2672 10.2234 13.0866 10.2131 13.0127" fill="#0060AF"/>
<path d="M10.7504 13.3123L10.6797 12.146L10.9542 12.0623L11.5297 13.0766L11.3136 13.1413L11.1772 12.8835L10.9372 12.9556L10.9683 13.2487L10.7504 13.3123ZM10.9171 12.7672L11.0906 12.717L10.8603 12.2451" fill="#0060AF"/>
<path d="M3.97139 12.4313C4.05728 12.1563 4.13426 11.9538 4.462 12.0437C4.63743 12.0927 4.74617 12.1701 4.74102 12.3739C4.74018 12.4192 4.7252 12.4654 4.71541 12.5102L4.51135 12.4539C4.5381 12.3413 4.55505 12.2521 4.41642 12.2094C4.25619 12.1654 4.21713 12.3597 4.19503 12.4436L4.11203 12.7493C4.08566 12.8401 4.05402 12.9902 4.19503 13.0289C4.31156 13.0603 4.38226 12.9459 4.42445 12.7788L4.28168 12.741L4.33103 12.5641L4.66668 12.6721L4.50733 13.2614L4.35288 13.2195L4.38766 13.0949H4.38326C4.31219 13.1968 4.22542 13.2074 4.14945 13.1929C3.81379 13.1021 3.84883 12.8827 3.92894 12.5896" fill="#0060AF"/>
<path d="M5.21925 12.9284L5.11816 13.4078L4.89062 13.3586L5.13311 12.2391L5.521 12.3268C5.74803 12.3758 5.8166 12.4768 5.78445 12.6849C5.76612 12.8043 5.70722 12.9331 5.56344 12.9226L5.56194 12.9207C5.68349 12.9632 5.69379 13.0245 5.67257 13.1305C5.6634 13.1756 5.60024 13.4492 5.64381 13.4934L5.64532 13.5269L5.40987 13.4655C5.40007 13.3897 5.43335 13.2533 5.44653 13.1778C5.45985 13.111 5.48107 13.0169 5.41326 12.9815C5.36014 12.9532 5.34043 12.9546 5.2804 12.9408L5.21925 12.9284ZM5.25805 12.755L5.41125 12.7963C5.5043 12.8097 5.55603 12.7615 5.57437 12.6491C5.59094 12.546 5.56947 12.5057 5.48596 12.4858L5.32172 12.4525" fill="#0060AF"/>
<path d="M6.67768 12.4896L6.9027 12.5158L6.80576 13.3027C6.75867 13.5522 6.66223 13.6614 6.38773 13.6272C6.10846 13.5919 6.04215 13.4647 6.05911 13.2132L6.15668 12.4268L6.38346 12.4528L6.28614 13.2216C6.27585 13.3051 6.25651 13.4288 6.40506 13.4437C6.53679 13.4538 6.56667 13.3665 6.58149 13.258" fill="#0060AF"/>
<path d="M7.15234 13.6705L7.22003 12.5451L7.65237 12.5638C7.85668 12.5739 7.91017 12.7407 7.90377 12.9C7.89787 12.9968 7.86761 13.1049 7.78322 13.1636C7.71403 13.2134 7.62512 13.2252 7.54262 13.2212L7.40173 13.2134L7.3736 13.685L7.15234 13.6705ZM7.40814 13.0417L7.52266 13.0482C7.61571 13.0515 7.67736 13.0148 7.6854 12.8781C7.68992 12.7469 7.64032 12.7247 7.51977 12.7194L7.42898 12.7163" fill="#0060AF"/>
<path d="M37.6455 3.13124L35.9272 6.25009C35.2786 5.72344 34.4866 5.3358 33.4761 5.3358C31.0848 5.3358 30.1135 7.1183 30.1135 8.3739C30.1135 9.3059 30.7238 10.681 32.8515 10.681C33.7446 10.681 35.0143 10.0597 35.3797 9.77705L33.6802 13.3954C32.8701 13.557 32.604 13.6572 31.9183 13.6785C28.11 13.7921 26.5711 11.4527 26.5723 9.06217C26.5748 5.902 29.3845 2.05873 34.0422 2.05873C34.3276 2.05873 34.6767 2.15743 34.9752 2.2668L35.2768 1.88104" fill="#0060AF"/>
<path d="M44.7347 1.9787L45.2213 13.3144H41.6001L41.5979 11.3703H39.1287L38.316 13.3144H34.3887L38.4945 5.21973L37.5687 5.21371L39.3278 1.9787H44.7347ZM41.5744 5.44652L40.1783 8.74368H41.6165" fill="#0060AF"/>
<path d="M24.2862 1.97883C26.0795 1.98888 27.0928 2.96231 27.0928 4.36848C27.0928 5.66477 26.0241 6.81225 24.8509 7.40558C26.0588 7.8496 26.1632 8.93958 26.1632 9.71072C26.1632 11.5737 24.2938 13.3145 21.8639 13.3145H16.5645L18.6316 5.33263L17.7825 5.32773L19.5183 1.97883C19.5183 1.97883 22.8279 1.96878 24.2862 1.97883ZM22.5268 6.57479C22.8977 6.57479 23.5527 6.48086 23.7164 5.76296C23.8959 4.98366 23.2812 4.96269 22.9864 4.96269L21.9328 4.95807L21.5654 6.57483L22.5268 6.57479ZM21.0372 8.57793L20.5521 10.4409H21.7927C22.2808 10.4409 22.9459 10.1987 23.1089 9.59243C23.2699 8.98441 22.8049 8.57793 22.3186 8.57793" fill="#0060AF"/>
</svg>
