<svg width="46" height="18" viewBox="0 0 46 18" fill="none" xmlns="http://www.w3.org/2000/svg">
<path d="M15.0215 0.663542H3.34416C1.92822 0.663542 0.779297 1.8402 0.779297 3.29357V14.855C0.779297 16.295 1.9055 17.4643 3.30573 17.485L15.0132 17.4854C16.4291 17.4854 17.5807 16.3084 17.5807 14.855L17.5864 3.29357C17.5864 1.8402 16.4371 0.663542 15.0215 0.663542ZM4.73202 16.1376L4.09473 16.1453C3.3231 16.1453 2.70019 15.51 2.70019 14.7293L2.69551 14.6167V3.94021L2.70019 3.36475C2.73126 2.60949 3.30439 1.99928 4.0563 1.99928H5.3506C6.52592 1.99928 7.47634 3.02021 7.47634 4.2226C7.47634 4.81979 7.24241 5.35882 6.86412 5.75283L3.56138 9.10268L6.65826 12.2574C7.05594 12.6698 7.29655 13.2108 7.29655 13.802C7.29655 15.0916 6.15063 16.1376 4.73202 16.1376ZM14.2529 16.1279L8.47856 16.1262C8.47856 16.1262 9.14626 14.6819 9.14626 13.7893C9.14626 12.7008 8.78233 11.7267 8.21255 11.0837L6.23852 9.06993L8.25165 6.98931C8.85418 6.4232 9.25186 5.42165 9.25186 4.28242C9.25186 3.37979 9.00256 2.58009 8.59886 1.99928H9.99876C11.1731 1.99928 12.1245 3.02021 12.1245 4.2226C12.1245 4.81979 11.8916 5.35882 11.5143 5.75283L8.2727 9.0686L15.0032 15.9324C14.7886 16.0667 14.5206 16.1279 14.2529 16.1279ZM15.6615 13.9841L10.8376 9.0676L13.1347 6.73365C13.6029 6.14716 13.901 5.26659 13.901 4.28242C13.901 3.37444 13.647 2.55369 13.2417 1.97321L14.2686 2.00529C15.0389 2.00529 15.6655 2.63857 15.6655 3.42156L15.6615 13.9841Z" fill="#00529C"/>
<path d="M27.936 8.28538C28.0299 8.19148 28.1408 8.0705 28.2688 7.92246C28.3965 7.77442 28.5175 7.59964 28.6317 7.39779C28.746 7.19594 28.8436 6.97104 28.9242 6.72207C29.005 6.47344 29.0455 6.20776 29.0455 5.92538C29.0455 5.37431 28.9512 4.86 28.7631 4.38245C28.5746 3.90524 28.2855 3.48818 27.8955 3.1316C27.5055 2.7757 27.0183 2.49632 26.4332 2.29447C25.8483 2.09296 25.1656 1.99203 24.3859 1.99203H24.3646H22.1229H21.5394H19.2422V4.56324V13.4646V16.1116H24.8902C25.7103 16.1116 26.4261 16.0007 27.0384 15.7788C27.6499 15.5569 28.1579 15.2511 28.5612 14.8611C28.9646 14.4711 29.2637 14.0173 29.4588 13.4997C29.6537 12.982 29.7513 12.4273 29.7513 11.8354C29.7513 11.0421 29.5698 10.3363 29.2069 9.71736C28.8436 9.09912 28.4199 8.62157 27.936 8.28538ZM25.4386 4.57928C25.6288 4.6518 25.7875 4.74604 25.9115 4.86468C26.2326 5.1728 26.3934 5.54107 26.3934 5.96949C26.3934 6.35814 26.3262 6.6793 26.1925 6.93361C26.0585 7.18826 25.9245 7.38242 25.7909 7.51609H21.8645V4.41253H24.3051C24.7626 4.41253 25.1392 4.469 25.4386 4.57928ZM25.0313 9.95964C25.7421 9.95964 26.2687 10.1438 26.6116 10.5114C26.9341 10.8733 27.0965 11.3004 27.0965 11.7946C27.0965 12.3039 26.9124 12.7387 26.5441 13.1003C26.1755 13.4619 25.57 13.643 24.7261 13.643H24.411H21.8645V9.95964H25.0313Z" fill="#00529C"/>
<path d="M39.3295 10.0302C39.7529 9.74109 40.1061 9.4049 40.3885 9.02159C40.6709 8.63828 40.8791 8.21487 41.0138 7.75102C41.1481 7.28684 41.2156 6.81297 41.2156 6.32874C41.2156 5.6968 41.111 5.11532 40.9028 4.58396C40.6939 4.05295 40.3815 3.59578 39.9648 3.21247C39.5477 2.82917 39.0267 2.53007 38.4014 2.31486C37.7762 2.09998 37.0533 1.99203 36.2333 1.99203H36.1594H30.7266H30.6758V16.1116H33.3489V10.8673H34.8394L38.5258 16.1116H41.6591L37.847 10.6858C38.4115 10.5381 38.9057 10.3196 39.3295 10.0302ZM36.2533 4.41253C36.4214 4.41253 36.5801 4.42356 36.7312 4.4426C37.2077 4.51445 37.5971 4.68455 37.8972 4.95491C38.3055 5.32351 38.5097 5.77533 38.5097 6.31069C38.5097 6.57904 38.4659 6.84004 38.3791 7.09435C38.2918 7.349 38.1548 7.57324 37.9673 7.76706C37.7795 7.96156 37.5386 8.11863 37.2442 8.23927C36.9494 8.35991 36.5945 8.42006 36.1795 8.42006H33.3489V4.41253H36.2533Z" fill="#00529C"/>
<path d="M42.6013 1.99203V1.99604C42.5742 1.99538 42.5478 1.99203 42.5208 1.99203H42.498V1.99304V7.16854V10.877V16.1116H45.2236V1.99203H42.6013Z" fill="#00529C"/>
</svg>
