<svg width="251" height="200" viewBox="0 0 251 200" fill="none" xmlns="http://www.w3.org/2000/svg">
<path d="M0.5 0H250.5V200H0.5V0Z" fill="white"/>
<path fill-rule="evenodd" clip-rule="evenodd" d="M63.5 134H154.5C155.015 134 155.517 133.944 156 133.839C156.483 133.944 156.985 134 157.5 134H209.5C213.366 134 216.5 130.866 216.5 127C216.5 123.134 213.366 120 209.5 120H203.5C199.634 120 196.5 116.866 196.5 113C196.5 109.134 199.634 106 203.5 106H222.5C226.366 106 229.5 102.866 229.5 99C229.5 95.134 226.366 92 222.5 92H200.5C204.366 92 207.5 88.866 207.5 85C207.5 81.134 204.366 78 200.5 78H136.5C140.366 78 143.5 74.866 143.5 71C143.5 67.134 140.366 64 136.5 64H79.5C75.634 64 72.5 67.134 72.5 71C72.5 74.866 75.634 78 79.5 78H39.5C35.634 78 32.5 81.134 32.5 85C32.5 88.866 35.634 92 39.5 92H64.5C68.366 92 71.5 95.134 71.5 99C71.5 102.866 68.366 106 64.5 106H24.5C20.634 106 17.5 109.134 17.5 113C17.5 116.866 20.634 120 24.5 120H63.5C59.634 120 56.5 123.134 56.5 127C56.5 130.866 59.634 134 63.5 134ZM226.5 134C230.366 134 233.5 130.866 233.5 127C233.5 123.134 230.366 120 226.5 120C222.634 120 219.5 123.134 219.5 127C219.5 130.866 222.634 134 226.5 134Z" fill="#F3F7FF"/>
<path d="M167.5 148H189.928M64.5 148H85.9541H64.5ZM51.6279 148H58.5H51.6279ZM194.628 148H197.5H194.628Z" stroke="#418AEA" stroke-width="2.5" stroke-linecap="round" stroke-linejoin="round"/>
<path d="M98.5 43.3027L109.6 55.7559M150.6 43.3027L139.5 55.7559L150.6 43.3027ZM124.5 39V55.7559V39Z" stroke="#418AEA" stroke-width="2.5" stroke-linecap="round" stroke-linejoin="round"/>
<path fill-rule="evenodd" clip-rule="evenodd" d="M93.2976 71H155.904L150.298 79.4098L157.773 85.0164H91.4287L99.8385 79.4098L93.2976 71Z" fill="#E8F0FE"/>
<path d="M89.5 85C89.5 83.8954 90.3954 83 91.5 83H158.5C159.605 83 160.5 83.8954 160.5 85V156C160.5 157.105 159.605 158 158.5 158H91.5C90.3954 158 89.5 157.105 89.5 156V85Z" fill="white"/>
<path fill-rule="evenodd" clip-rule="evenodd" d="M94.085 124.006V89.6453C94.085 88.2297 95.2452 87.082 96.6764 87.082L157.653 151.164C157.653 153.052 156.142 154.582 154.278 154.582H97.4599C95.596 154.582 94.085 153.052 94.085 151.164V138.395V134.93V124.006ZM94.085 131.425V127.577V131.425Z" fill="#E8F0FE"/>
<path d="M90.5 124.463V86.8853C90.5 85.3371 91.7705 84.082 93.3377 84.082H158.261C159.282 84.082 160.109 84.9187 160.109 85.9509V154.164C160.109 156.228 158.454 157.902 156.413 157.902H94.1956C92.1546 157.902 90.5 156.228 90.5 154.164V140.199V136.41M90.5 132.576V128.368" stroke="#418AEA" stroke-width="2.5" stroke-linecap="round"/>
<path d="M92.3636 84.0819V72.8688C92.3636 71.8367 93.1145 70.9999 94.0408 70.9999H156.096C157.023 70.9999 157.773 71.8367 157.773 72.8688V84.0819" stroke="#418AEA" stroke-width="2.5"/>
<path d="M109.65 103.705C111.457 103.705 112.921 102.241 112.921 100.434C112.921 98.6282 111.457 97.1639 109.65 97.1639C107.844 97.1639 106.38 98.6282 106.38 100.434C106.38 102.241 107.844 103.705 109.65 103.705Z" fill="#E8F0FE" stroke="#418AEA" stroke-width="2.5" stroke-linecap="round"/>
<path d="M140.486 103.705C142.293 103.705 143.757 102.241 143.757 100.434C143.757 98.6282 142.293 97.1639 140.486 97.1639C138.68 97.1639 137.216 98.6282 137.216 100.434C137.216 102.241 138.68 103.705 140.486 103.705Z" fill="#E8F0FE" stroke="#418AEA" stroke-width="2.5" stroke-linecap="round"/>
<path d="M140.019 103.705C140.019 111.962 133.325 118.656 125.068 118.656C116.811 118.656 110.117 111.962 110.117 103.705" stroke="#418AEA" stroke-width="2.5" stroke-linecap="round"/>
<path d="M93.3547 71.9315L99.9331 78.4252C100.326 78.8132 100.33 79.4463 99.9423 79.8394C99.8752 79.9074 99.7986 79.9654 99.715 80.0117L92.3633 84.082" stroke="#418AEA" stroke-width="2.5" stroke-linecap="round"/>
<path d="M156.94 71.9993L150.645 78.4197C150.258 78.8141 150.264 79.4472 150.659 79.8339C150.725 79.8984 150.799 79.9535 150.88 79.9977L158.367 84.082" stroke="#418AEA" stroke-width="2.5" stroke-linecap="round"/>
</svg>
