<svg width="21" height="20" viewBox="0 0 21 20" fill="none" xmlns="http://www.w3.org/2000/svg">
<path d="M7.33325 2.5H4.16659C3.69987 2.5 3.46652 2.5 3.28826 2.59083C3.13146 2.67072 3.00397 2.79821 2.92408 2.95501C2.83325 3.13327 2.83325 3.36662 2.83325 3.83333V7C2.83325 7.46671 2.83325 7.70007 2.92408 7.87833C3.00397 8.03513 3.13146 8.16261 3.28826 8.24251C3.46652 8.33333 3.69987 8.33333 4.16659 8.33333H7.33325C7.79996 8.33333 8.03332 8.33333 8.21158 8.24251C8.36838 8.16261 8.49586 8.03513 8.57576 7.87833C8.66659 7.70007 8.66659 7.46671 8.66659 7V3.83333C8.66659 3.36662 8.66659 3.13327 8.57576 2.95501C8.49586 2.79821 8.36838 2.67072 8.21158 2.59083C8.03332 2.5 7.79996 2.5 7.33325 2.5Z" stroke="#0A0D12" stroke-width="1.66667" stroke-linecap="round" stroke-linejoin="round"/>
<path d="M16.4999 2.5H13.3333C12.8665 2.5 12.6332 2.5 12.4549 2.59083C12.2981 2.67072 12.1706 2.79821 12.0907 2.95501C11.9999 3.13327 11.9999 3.36662 11.9999 3.83333V7C11.9999 7.46671 11.9999 7.70007 12.0907 7.87833C12.1706 8.03513 12.2981 8.16261 12.4549 8.24251C12.6332 8.33333 12.8665 8.33333 13.3333 8.33333H16.4999C16.9666 8.33333 17.2 8.33333 17.3782 8.24251C17.535 8.16261 17.6625 8.03513 17.7424 7.87833C17.8333 7.70007 17.8333 7.46671 17.8333 7V3.83333C17.8333 3.36662 17.8333 3.13327 17.7424 2.95501C17.6625 2.79821 17.535 2.67072 17.3782 2.59083C17.2 2.5 16.9666 2.5 16.4999 2.5Z" stroke="#0A0D12" stroke-width="1.66667" stroke-linecap="round" stroke-linejoin="round"/>
<path d="M16.4999 11.6667H13.3333C12.8665 11.6667 12.6332 11.6667 12.4549 11.7575C12.2981 11.8374 12.1706 11.9649 12.0907 12.1217C11.9999 12.2999 11.9999 12.5333 11.9999 13V16.1667C11.9999 16.6334 11.9999 16.8667 12.0907 17.045C12.1706 17.2018 12.2981 17.3293 12.4549 17.4092C12.6332 17.5 12.8665 17.5 13.3333 17.5H16.4999C16.9666 17.5 17.2 17.5 17.3782 17.4092C17.535 17.3293 17.6625 17.2018 17.7424 17.045C17.8333 16.8667 17.8333 16.6334 17.8333 16.1667V13C17.8333 12.5333 17.8333 12.2999 17.7424 12.1217C17.6625 11.9649 17.535 11.8374 17.3782 11.7575C17.2 11.6667 16.9666 11.6667 16.4999 11.6667Z" stroke="#0A0D12" stroke-width="1.66667" stroke-linecap="round" stroke-linejoin="round"/>
<path d="M7.33325 11.6667H4.16659C3.69987 11.6667 3.46652 11.6667 3.28826 11.7575C3.13146 11.8374 3.00397 11.9649 2.92408 12.1217C2.83325 12.2999 2.83325 12.5333 2.83325 13V16.1667C2.83325 16.6334 2.83325 16.8667 2.92408 17.045C3.00397 17.2018 3.13146 17.3293 3.28826 17.4092C3.46652 17.5 3.69987 17.5 4.16659 17.5H7.33325C7.79996 17.5 8.03332 17.5 8.21158 17.4092C8.36838 17.3293 8.49586 17.2018 8.57576 17.045C8.66659 16.8667 8.66659 16.6334 8.66659 16.1667V13C8.66659 12.5333 8.66659 12.2999 8.57576 12.1217C8.49586 11.9649 8.36838 11.8374 8.21158 11.7575C8.03332 11.6667 7.79996 11.6667 7.33325 11.6667Z" stroke="#0A0D12" stroke-width="1.66667" stroke-linecap="round" stroke-linejoin="round"/>
</svg>
