<svg width="39" height="42" viewBox="0 0 39 42" fill="none" xmlns="http://www.w3.org/2000/svg">
<mask id="mask0_28412_7573" style="mask-type:luminance" maskUnits="userSpaceOnUse" x="0" y="0" width="39" height="42">
<path d="M0 0H38.3049V42H0V0Z" fill="white"/>
</mask>
<g mask="url(#mask0_28412_7573)">
<path fill-rule="evenodd" clip-rule="evenodd" d="M36.5471 8.43447L38.2717 40.7862C38.3037 41.4568 37.7184 41.9998 37.0478 41.9998H1.23591C0.565369 41.9998 0.00115354 41.4568 0.0223046 40.7862L1.25706 8.34929C1.25706 7.65703 1.64064 7.25287 2.40664 7.14598H12.4882C12.7757 3.95219 14.298 1.83424 16.225 0.801275C17.1191 0.322235 18.0983 0.0775704 19.0781 0.0775704C20.0574 0.0667091 21.0366 0.301084 21.9312 0.769262C23.8897 1.7805 25.4651 3.90989 25.7955 7.14598H35.2489C36.2813 7.22086 36.5048 7.62502 36.5471 8.43447ZM13.8619 7.14598H24.4116C24.1132 4.50611 22.8573 2.79232 21.303 1.99373C20.6004 1.62102 19.8338 1.45066 19.0781 1.45066C18.3218 1.45066 17.5661 1.64217 16.8744 2.01488C15.3521 2.82376 14.1277 4.53813 13.8619 7.14598Z" fill="#418AEA"/>
</g>
<path d="M17.7045 23.2215C17.7045 23.321 17.6982 23.4204 17.6851 23.5182C17.6719 23.6165 17.6525 23.7114 17.6268 23.804C17.6011 23.8961 17.5696 23.9841 17.5325 24.067C17.4953 24.1499 17.453 24.227 17.4056 24.2979C17.3581 24.3682 17.3061 24.4317 17.2506 24.4871C17.1946 24.5426 17.1357 24.5895 17.074 24.6278C17.0117 24.6661 16.9477 24.6946 16.8819 24.7141C16.8162 24.7341 16.7499 24.7438 16.683 24.7438C16.6155 24.7438 16.5492 24.7341 16.4835 24.7141C16.4177 24.6946 16.3537 24.6661 16.2914 24.6278C16.2297 24.5895 16.1708 24.5426 16.1148 24.4871C16.0593 24.4317 16.0073 24.3682 15.9599 24.2979C15.9124 24.227 15.8701 24.1499 15.833 24.067C15.7958 23.9841 15.7644 23.8961 15.7386 23.804C15.7129 23.7114 15.6935 23.6165 15.6803 23.5182C15.6672 23.4204 15.6609 23.321 15.6609 23.2215C15.6609 23.1215 15.6672 23.0226 15.6803 22.9243C15.6935 22.8265 15.7129 22.731 15.7386 22.6384C15.7644 22.5464 15.7958 22.4584 15.833 22.3755C15.8701 22.2926 15.9124 22.2154 15.9599 22.1451C16.0073 22.0742 16.0593 22.0108 16.1148 21.9553C16.1708 21.8999 16.2297 21.853 16.2914 21.8147C16.3537 21.7764 16.4177 21.7478 16.4835 21.7284C16.5492 21.7089 16.6155 21.6992 16.683 21.6992C16.7499 21.6992 16.8162 21.7089 16.8819 21.7284C16.9477 21.7478 17.0117 21.7764 17.074 21.8147C17.1357 21.853 17.1946 21.8999 17.2506 21.9553C17.3061 22.0108 17.3581 22.0742 17.4056 22.1451C17.453 22.2154 17.4953 22.2926 17.5325 22.3755C17.5696 22.4584 17.6011 22.5464 17.6268 22.6384C17.6525 22.731 17.6719 22.8265 17.6851 22.9243C17.6982 23.0226 17.7045 23.1215 17.7045 23.2215Z" fill="white"/>
<path d="M23.7723 23.2215C23.7723 23.321 23.766 23.4204 23.7528 23.5182C23.7397 23.6165 23.7203 23.7114 23.6945 23.804C23.6688 23.8961 23.6374 23.9841 23.6002 24.067C23.5631 24.1499 23.5207 24.227 23.4733 24.2979C23.4259 24.3682 23.3738 24.4317 23.3184 24.4871C23.2624 24.5426 23.2035 24.5895 23.1417 24.6278C23.0794 24.6661 23.0154 24.6946 22.9497 24.7141C22.8839 24.7341 22.8176 24.7438 22.7502 24.7438C22.6833 24.7438 22.617 24.7341 22.5512 24.7141C22.4855 24.6946 22.4215 24.6661 22.3592 24.6278C22.2974 24.5895 22.2385 24.5426 22.1825 24.4871C22.1271 24.4317 22.0751 24.3682 22.0276 24.2979C21.9802 24.227 21.9379 24.1499 21.9007 24.067C21.8635 23.9841 21.8321 23.8961 21.8064 23.804C21.7807 23.7114 21.7612 23.6165 21.7481 23.5182C21.7349 23.4204 21.7286 23.321 21.7286 23.2215C21.7286 23.1215 21.7349 23.0226 21.7481 22.9243C21.7612 22.8265 21.7807 22.731 21.8064 22.6384C21.8321 22.5464 21.8635 22.4584 21.9007 22.3755C21.9379 22.2926 21.9802 22.2154 22.0276 22.1451C22.0751 22.0742 22.1271 22.0108 22.1825 21.9553C22.2385 21.8999 22.2974 21.853 22.3592 21.8147C22.4215 21.7764 22.4855 21.7478 22.5512 21.7284C22.617 21.7089 22.6833 21.6992 22.7502 21.6992C22.8176 21.6992 22.8839 21.7089 22.9497 21.7284C23.0154 21.7478 23.0794 21.7764 23.1417 21.8147C23.2035 21.853 23.2624 21.8999 23.3184 21.9553C23.3738 22.0108 23.4259 22.0742 23.4733 22.1451C23.5207 22.2154 23.5631 22.2926 23.6002 22.3755C23.6374 22.4584 23.6688 22.5464 23.6945 22.6384C23.7203 22.731 23.7397 22.8265 23.7528 22.9243C23.766 23.0226 23.7723 23.1215 23.7723 23.2215Z" fill="white"/>
<path fill-rule="evenodd" clip-rule="evenodd" d="M8.86841 25.3713C13.5525 27.8094 16.6079 29.0339 22.0477 28.3525C25.3375 27.9477 27.009 26.9256 29.8301 25.4034L28.8183 26.5106C26.1253 28.9378 21.42 30.1726 17.8644 29.7256C14.3299 29.2888 11.3065 27.9798 8.86841 25.3713Z" fill="white"/>
<path d="M13.9043 9.26478C13.9043 9.32366 13.8986 9.38197 13.8871 9.43913C13.8757 9.49687 13.8586 9.55289 13.8363 9.6072C13.814 9.6615 13.786 9.71295 13.7534 9.76154C13.7208 9.8107 13.6836 9.85586 13.6425 9.89702C13.6007 9.93875 13.5556 9.97591 13.507 10.0085C13.4578 10.0411 13.4064 10.0685 13.3521 10.0908C13.2978 10.1137 13.2423 10.1303 13.1846 10.1417C13.1268 10.1531 13.0685 10.1594 13.0102 10.1594C12.9513 10.1594 12.893 10.1531 12.8359 10.1417C12.7781 10.1303 12.7221 10.1137 12.6678 10.0908C12.6135 10.0685 12.5621 10.0411 12.5135 10.0085C12.4643 9.97591 12.4191 9.93875 12.378 9.89702C12.3363 9.85586 12.2991 9.8107 12.2665 9.76154C12.2339 9.71295 12.2065 9.6615 12.1836 9.6072C12.1613 9.55289 12.1442 9.49687 12.1327 9.43913C12.1213 9.38197 12.1156 9.32366 12.1156 9.26478C12.1156 9.2059 12.1213 9.14817 12.1327 9.09043C12.1442 9.03269 12.1613 8.97667 12.1836 8.92294C12.2065 8.86863 12.2339 8.81718 12.2665 8.76802C12.2991 8.71943 12.3363 8.67427 12.378 8.63254C12.4191 8.59081 12.4643 8.55423 12.5135 8.52164C12.5621 8.48849 12.6135 8.46105 12.6678 8.43875C12.7221 8.41646 12.7781 8.39931 12.8359 8.38788C12.893 8.37644 12.9513 8.37073 13.0102 8.37073C13.0685 8.37073 13.1268 8.37644 13.1846 8.38788C13.2423 8.39931 13.2978 8.41646 13.3521 8.43875C13.4064 8.46105 13.4578 8.48849 13.507 8.52164C13.5556 8.55423 13.6007 8.59081 13.6425 8.63254C13.6836 8.67427 13.7208 8.71943 13.7534 8.76802C13.786 8.81718 13.814 8.86863 13.8363 8.92294C13.8586 8.97667 13.8757 9.03269 13.8871 9.09043C13.8986 9.14817 13.9043 9.2059 13.9043 9.26478Z" fill="white"/>
<path d="M26.3058 9.26478C26.3058 9.32366 26.3001 9.38197 26.2887 9.43913C26.2772 9.49687 26.2607 9.55289 26.2378 9.6072C26.2155 9.6615 26.1881 9.71295 26.1555 9.76154C26.1229 9.8107 26.0857 9.85586 26.044 9.89702C26.0028 9.93875 25.9577 9.97591 25.9085 10.0085C25.8599 10.0411 25.8085 10.0685 25.7542 10.0908C25.6999 10.1137 25.6438 10.1303 25.5861 10.1417C25.5289 10.1531 25.4706 10.1594 25.4118 10.1594C25.3529 10.1594 25.2951 10.1531 25.2374 10.1417C25.1797 10.1303 25.1236 10.1137 25.0699 10.0908C25.0156 10.0685 24.9636 10.0411 24.915 10.0085C24.8664 9.97591 24.8212 9.93875 24.7795 9.89702C24.7378 9.85586 24.7012 9.8107 24.668 9.76154C24.6355 9.71295 24.608 9.6615 24.5857 9.6072C24.5634 9.55289 24.5463 9.49687 24.5348 9.43913C24.5234 9.38197 24.5177 9.32366 24.5177 9.26478C24.5177 9.2059 24.5234 9.14817 24.5348 9.09043C24.5463 9.03269 24.5634 8.97667 24.5857 8.92294C24.608 8.86863 24.6355 8.81718 24.668 8.76802C24.7012 8.71943 24.7378 8.67427 24.7795 8.63254C24.8212 8.59081 24.8664 8.55423 24.915 8.52164C24.9636 8.48849 25.0156 8.46105 25.0699 8.43875C25.1236 8.41646 25.1797 8.39931 25.2374 8.38788C25.2951 8.37644 25.3529 8.37073 25.4118 8.37073C25.4706 8.37073 25.5289 8.37644 25.5861 8.38788C25.6438 8.39931 25.6999 8.41646 25.7542 8.43875C25.8085 8.46105 25.8599 8.48849 25.9085 8.52164C25.9577 8.55423 26.0028 8.59081 26.044 8.63254C26.0857 8.67427 26.1229 8.71943 26.1555 8.76802C26.1881 8.81718 26.2155 8.86863 26.2378 8.92294C26.2607 8.97667 26.2772 9.03269 26.2887 9.09043C26.3001 9.14817 26.3058 9.2059 26.3058 9.26478Z" fill="white"/>
</svg>
