<svg width="160" height="42" viewBox="0 0 160 42" fill="none" xmlns="http://www.w3.org/2000/svg">
<rect width="160" height="42" fill="white"/>
<mask id="mask0_28411_4858" style="mask-type:luminance" maskUnits="userSpaceOnUse" x="0" y="0" width="39" height="42">
<path d="M0 0H38.3049V42H0V0Z" fill="white"/>
</mask>
<g mask="url(#mask0_28411_4858)">
<path fill-rule="evenodd" clip-rule="evenodd" d="M36.5471 8.43465L38.2717 40.7864C38.3037 41.4569 37.7184 42 37.0478 42H1.23591C0.565369 42 0.00115354 41.4569 0.0223046 40.7864L1.25706 8.34948C1.25706 7.65721 1.64064 7.25306 2.40664 7.14616H12.4882C12.7757 3.95237 14.298 1.83442 16.225 0.801458C17.1191 0.322418 18.0983 0.0777535 19.0781 0.0777535C20.0574 0.0668922 21.0366 0.301267 21.9312 0.769446C23.8897 1.78069 25.4651 3.91007 25.7955 7.14616H35.2489C36.2813 7.22105 36.5048 7.6252 36.5471 8.43465ZM13.8619 7.14616H24.4116C24.1132 4.5063 22.8573 2.7925 21.303 1.99391C20.6004 1.6212 19.8338 1.45085 19.0781 1.45085C18.3218 1.45085 17.5661 1.64235 16.8744 2.01506C15.3521 2.82394 14.1277 4.53831 13.8619 7.14616Z" fill="#418AEA"/>
</g>
<path d="M17.7045 23.2215C17.7045 23.321 17.6982 23.4204 17.6851 23.5182C17.6719 23.6165 17.6525 23.7114 17.6268 23.804C17.6011 23.8961 17.5696 23.9841 17.5325 24.067C17.4953 24.1499 17.453 24.227 17.4056 24.2979C17.3581 24.3682 17.3061 24.4317 17.2506 24.4871C17.1946 24.5426 17.1357 24.5895 17.074 24.6278C17.0117 24.6661 16.9477 24.6946 16.8819 24.7141C16.8162 24.7341 16.7499 24.7438 16.683 24.7438C16.6155 24.7438 16.5492 24.7341 16.4835 24.7141C16.4177 24.6946 16.3537 24.6661 16.2914 24.6278C16.2297 24.5895 16.1708 24.5426 16.1148 24.4871C16.0593 24.4317 16.0073 24.3682 15.9599 24.2979C15.9124 24.227 15.8701 24.1499 15.833 24.067C15.7958 23.9841 15.7644 23.8961 15.7386 23.804C15.7129 23.7114 15.6935 23.6165 15.6803 23.5182C15.6672 23.4204 15.6609 23.321 15.6609 23.2215C15.6609 23.1215 15.6672 23.0226 15.6803 22.9243C15.6935 22.8265 15.7129 22.731 15.7386 22.6384C15.7644 22.5464 15.7958 22.4584 15.833 22.3755C15.8701 22.2926 15.9124 22.2154 15.9599 22.1451C16.0073 22.0742 16.0593 22.0108 16.1148 21.9553C16.1708 21.8999 16.2297 21.853 16.2914 21.8147C16.3537 21.7764 16.4177 21.7478 16.4835 21.7284C16.5492 21.7089 16.6155 21.6992 16.683 21.6992C16.7499 21.6992 16.8162 21.7089 16.8819 21.7284C16.9477 21.7478 17.0117 21.7764 17.074 21.8147C17.1357 21.853 17.1946 21.8999 17.2506 21.9553C17.3061 22.0108 17.3581 22.0742 17.4056 22.1451C17.453 22.2154 17.4953 22.2926 17.5325 22.3755C17.5696 22.4584 17.6011 22.5464 17.6268 22.6384C17.6525 22.731 17.6719 22.8265 17.6851 22.9243C17.6982 23.0226 17.7045 23.1215 17.7045 23.2215Z" fill="white"/>
<path d="M23.7723 23.2215C23.7723 23.321 23.766 23.4204 23.7528 23.5182C23.7397 23.6165 23.7203 23.7114 23.6945 23.804C23.6688 23.8961 23.6374 23.9841 23.6002 24.067C23.5631 24.1499 23.5207 24.227 23.4733 24.2979C23.4259 24.3682 23.3738 24.4317 23.3184 24.4871C23.2624 24.5426 23.2035 24.5895 23.1417 24.6278C23.0794 24.6661 23.0154 24.6946 22.9497 24.7141C22.8839 24.7341 22.8176 24.7438 22.7502 24.7438C22.6833 24.7438 22.617 24.7341 22.5512 24.7141C22.4855 24.6946 22.4215 24.6661 22.3592 24.6278C22.2974 24.5895 22.2385 24.5426 22.1825 24.4871C22.1271 24.4317 22.0751 24.3682 22.0276 24.2979C21.9802 24.227 21.9379 24.1499 21.9007 24.067C21.8635 23.9841 21.8321 23.8961 21.8064 23.804C21.7807 23.7114 21.7612 23.6165 21.7481 23.5182C21.7349 23.4204 21.7286 23.321 21.7286 23.2215C21.7286 23.1215 21.7349 23.0226 21.7481 22.9243C21.7612 22.8265 21.7807 22.731 21.8064 22.6384C21.8321 22.5464 21.8635 22.4584 21.9007 22.3755C21.9379 22.2926 21.9802 22.2154 22.0276 22.1451C22.0751 22.0742 22.1271 22.0108 22.1825 21.9553C22.2385 21.8999 22.2974 21.853 22.3592 21.8147C22.4215 21.7764 22.4855 21.7478 22.5512 21.7284C22.617 21.7089 22.6833 21.6992 22.7502 21.6992C22.8176 21.6992 22.8839 21.7089 22.9497 21.7284C23.0154 21.7478 23.0794 21.7764 23.1417 21.8147C23.2035 21.853 23.2624 21.8999 23.3184 21.9553C23.3738 22.0108 23.4259 22.0742 23.4733 22.1451C23.5207 22.2154 23.5631 22.2926 23.6002 22.3755C23.6374 22.4584 23.6688 22.5464 23.6945 22.6384C23.7203 22.731 23.7397 22.8265 23.7528 22.9243C23.766 23.0226 23.7723 23.1215 23.7723 23.2215Z" fill="white"/>
<path fill-rule="evenodd" clip-rule="evenodd" d="M8.86841 25.3713C13.5525 27.8094 16.6079 29.0339 22.0477 28.3525C25.3375 27.9477 27.009 26.9256 29.8301 25.4034L28.8183 26.5106C26.1253 28.9378 21.42 30.1726 17.8644 29.7256C14.3299 29.2888 11.3065 27.9798 8.86841 25.3713Z" fill="white"/>
<path d="M13.9043 9.26466C13.9043 9.32354 13.8986 9.38185 13.8871 9.43901C13.8757 9.49675 13.8586 9.55277 13.8363 9.60708C13.814 9.66138 13.786 9.71283 13.7534 9.76142C13.7208 9.81058 13.6836 9.85574 13.6425 9.8969C13.6007 9.93863 13.5556 9.97579 13.507 10.0084C13.4578 10.041 13.4064 10.0684 13.3521 10.0907C13.2978 10.1136 13.2423 10.1301 13.1846 10.1416C13.1268 10.153 13.0685 10.1593 13.0102 10.1593C12.9513 10.1593 12.893 10.153 12.8359 10.1416C12.7781 10.1301 12.7221 10.1136 12.6678 10.0907C12.6135 10.0684 12.5621 10.041 12.5135 10.0084C12.4643 9.97579 12.4191 9.93863 12.378 9.8969C12.3363 9.85574 12.2991 9.81058 12.2665 9.76142C12.2339 9.71283 12.2065 9.66138 12.1836 9.60708C12.1613 9.55277 12.1442 9.49675 12.1327 9.43901C12.1213 9.38185 12.1156 9.32354 12.1156 9.26466C12.1156 9.20578 12.1213 9.14804 12.1327 9.09031C12.1442 9.03257 12.1613 8.97655 12.1836 8.92282C12.2065 8.86851 12.2339 8.81706 12.2665 8.7679C12.2991 8.71931 12.3363 8.67415 12.378 8.63242C12.4191 8.59069 12.4643 8.5541 12.5135 8.52152C12.5621 8.48836 12.6135 8.46093 12.6678 8.43863C12.7221 8.41634 12.7781 8.39919 12.8359 8.38775C12.893 8.37632 12.9513 8.37061 13.0102 8.37061C13.0685 8.37061 13.1268 8.37632 13.1846 8.38775C13.2423 8.39919 13.2978 8.41634 13.3521 8.43863C13.4064 8.46093 13.4578 8.48836 13.507 8.52152C13.5556 8.5541 13.6007 8.59069 13.6425 8.63242C13.6836 8.67415 13.7208 8.71931 13.7534 8.7679C13.786 8.81706 13.814 8.86851 13.8363 8.92282C13.8586 8.97655 13.8757 9.03257 13.8871 9.09031C13.8986 9.14804 13.9043 9.20578 13.9043 9.26466Z" fill="white"/>
<path d="M26.3058 9.26466C26.3058 9.32354 26.3001 9.38185 26.2887 9.43901C26.2772 9.49675 26.2607 9.55277 26.2378 9.60708C26.2155 9.66138 26.1881 9.71283 26.1555 9.76142C26.1229 9.81058 26.0857 9.85574 26.044 9.8969C26.0028 9.93863 25.9577 9.97579 25.9085 10.0084C25.8599 10.041 25.8085 10.0684 25.7542 10.0907C25.6999 10.1136 25.6438 10.1301 25.5861 10.1416C25.5289 10.153 25.4706 10.1593 25.4118 10.1593C25.3529 10.1593 25.2951 10.153 25.2374 10.1416C25.1797 10.1301 25.1236 10.1136 25.0699 10.0907C25.0156 10.0684 24.9636 10.041 24.915 10.0084C24.8664 9.97579 24.8212 9.93863 24.7795 9.8969C24.7378 9.85574 24.7012 9.81058 24.668 9.76142C24.6355 9.71283 24.608 9.66138 24.5857 9.60708C24.5634 9.55277 24.5463 9.49675 24.5348 9.43901C24.5234 9.38185 24.5177 9.32354 24.5177 9.26466C24.5177 9.20578 24.5234 9.14804 24.5348 9.09031C24.5463 9.03257 24.5634 8.97655 24.5857 8.92282C24.608 8.86851 24.6355 8.81706 24.668 8.7679C24.7012 8.71931 24.7378 8.67415 24.7795 8.63242C24.8212 8.59069 24.8664 8.5541 24.915 8.52152C24.9636 8.48836 25.0156 8.46093 25.0699 8.43863C25.1236 8.41634 25.1797 8.39919 25.2374 8.38775C25.2951 8.37632 25.3529 8.37061 25.4118 8.37061C25.4706 8.37061 25.5289 8.37632 25.5861 8.38775C25.6438 8.39919 25.6999 8.41634 25.7542 8.43863C25.8085 8.46093 25.8599 8.48836 25.9085 8.52152C25.9577 8.5541 26.0028 8.59069 26.044 8.63242C26.0857 8.67415 26.1229 8.71931 26.1555 8.7679C26.1881 8.81706 26.2155 8.86851 26.2378 8.92282C26.2607 8.97655 26.2772 9.03257 26.2887 9.09031C26.3001 9.14804 26.3058 9.20578 26.3058 9.26466Z" fill="white"/>
<path d="M58.9271 19.4375H56.4385C56.393 19.1155 56.3002 18.8295 56.16 18.5795C56.0199 18.3258 55.84 18.1098 55.6203 17.9318C55.4006 17.7538 55.1468 17.6174 54.8589 17.5227C54.5748 17.428 54.2661 17.3807 53.9328 17.3807C53.3305 17.3807 52.8059 17.5303 52.3589 17.8295C51.9119 18.125 51.5653 18.5568 51.3191 19.125C51.0729 19.6894 50.9498 20.375 50.9498 21.1818C50.9498 22.0114 51.0729 22.7083 51.3191 23.2727C51.5691 23.8371 51.9176 24.2633 52.3646 24.5511C52.8116 24.839 53.3286 24.983 53.9157 24.983C54.2453 24.983 54.5502 24.9394 54.8305 24.8523C55.1146 24.7652 55.3665 24.6383 55.5862 24.4716C55.8059 24.3011 55.9877 24.0947 56.1316 23.8523C56.2794 23.6098 56.3816 23.3333 56.4385 23.0227L58.9271 23.0341C58.8627 23.5682 58.7017 24.0833 58.4441 24.5795C58.1903 25.072 57.8475 25.5133 57.4157 25.9034C56.9877 26.2898 56.4763 26.5966 55.8816 26.8239C55.2907 27.0473 54.6222 27.1591 53.876 27.1591C52.8381 27.1591 51.91 26.9242 51.0919 26.4545C50.2775 25.9848 49.6335 25.3049 49.16 24.4148C48.6903 23.5246 48.4555 22.447 48.4555 21.1818C48.4555 19.9129 48.6941 18.8333 49.1714 17.9432C49.6487 17.053 50.2964 16.375 51.1146 15.9091C51.9328 15.4394 52.8532 15.2045 53.876 15.2045C54.5502 15.2045 55.1752 15.2992 55.751 15.4886C56.3305 15.678 56.8438 15.9545 57.2907 16.3182C57.7377 16.678 58.1013 17.1193 58.3816 17.642C58.6657 18.1648 58.8475 18.7633 58.9271 19.4375ZM64.589 27.1705C63.7064 27.1705 62.9432 26.983 62.2992 26.608C61.6591 26.2292 61.1648 25.7027 60.8163 25.0284C60.4678 24.3504 60.2936 23.5644 60.2936 22.6705C60.2936 21.7689 60.4678 20.9811 60.8163 20.3068C61.1648 19.6288 61.6591 19.1023 62.2992 18.7273C62.9432 18.3485 63.7064 18.1591 64.589 18.1591C65.4716 18.1591 66.233 18.3485 66.8731 18.7273C67.5171 19.1023 68.0133 19.6288 68.3617 20.3068C68.7102 20.9811 68.8845 21.7689 68.8845 22.6705C68.8845 23.5644 68.7102 24.3504 68.3617 25.0284C68.0133 25.7027 67.5171 26.2292 66.8731 26.608C66.233 26.983 65.4716 27.1705 64.589 27.1705ZM64.6004 25.2955C65.0019 25.2955 65.3371 25.1818 65.6061 24.9545C65.875 24.7235 66.0777 24.4091 66.214 24.0114C66.3542 23.6136 66.4243 23.161 66.4243 22.6534C66.4243 22.1458 66.3542 21.6932 66.214 21.2955C66.0777 20.8977 65.875 20.5833 65.6061 20.3523C65.3371 20.1212 65.0019 20.0057 64.6004 20.0057C64.1951 20.0057 63.8542 20.1212 63.5777 20.3523C63.3049 20.5833 63.0985 20.8977 62.9583 21.2955C62.822 21.6932 62.7538 22.1458 62.7538 22.6534C62.7538 23.161 62.822 23.6136 62.9583 24.0114C63.0985 24.4091 63.3049 24.7235 63.5777 24.9545C63.8542 25.1818 64.1951 25.2955 64.6004 25.2955ZM70.4583 27V18.2727H72.7652V19.8125H72.8674C73.0492 19.3011 73.3523 18.8977 73.7765 18.6023C74.2008 18.3068 74.7083 18.1591 75.2993 18.1591C75.8977 18.1591 76.4072 18.3087 76.8277 18.608C77.2481 18.9034 77.5284 19.3049 77.6686 19.8125H77.7595C77.9375 19.3125 78.2595 18.9129 78.7254 18.6136C79.1951 18.3106 79.75 18.1591 80.3902 18.1591C81.2046 18.1591 81.8655 18.4186 82.3731 18.9375C82.8845 19.4527 83.1402 20.1837 83.1402 21.1307V27H80.7254V21.608C80.7254 21.1231 80.5966 20.7595 80.339 20.517C80.0814 20.2746 79.7595 20.1534 79.3731 20.1534C78.9337 20.1534 78.5909 20.2936 78.3447 20.5739C78.0985 20.8504 77.9754 21.2159 77.9754 21.6705V27H75.6288V21.5568C75.6288 21.1288 75.5057 20.7879 75.2595 20.5341C75.0171 20.2803 74.697 20.1534 74.2993 20.1534C74.0303 20.1534 73.7879 20.2216 73.572 20.358C73.3599 20.4905 73.1913 20.678 73.0663 20.9205C72.9413 21.1591 72.8788 21.4394 72.8788 21.7614V27H70.4583ZM85.0521 27V18.2727H87.3589V19.8125H87.4612C87.643 19.3011 87.946 18.8977 88.3703 18.6023C88.7945 18.3068 89.3021 18.1591 89.893 18.1591C90.4915 18.1591 91.001 18.3087 91.4214 18.608C91.8419 18.9034 92.1222 19.3049 92.2623 19.8125H92.3532C92.5313 19.3125 92.8532 18.9129 93.3191 18.6136C93.7888 18.3106 94.3438 18.1591 94.9839 18.1591C95.7983 18.1591 96.4593 18.4186 96.9669 18.9375C97.4782 19.4527 97.7339 20.1837 97.7339 21.1307V27H95.3191V21.608C95.3191 21.1231 95.1903 20.7595 94.9328 20.517C94.6752 20.2746 94.3532 20.1534 93.9669 20.1534C93.5275 20.1534 93.1847 20.2936 92.9385 20.5739C92.6922 20.8504 92.5691 21.2159 92.5691 21.6705V27H90.2225V21.5568C90.2225 21.1288 90.0994 20.7879 89.8532 20.5341C89.6108 20.2803 89.2907 20.1534 88.893 20.1534C88.6241 20.1534 88.3816 20.2216 88.1657 20.358C87.9536 20.4905 87.785 20.678 87.66 20.9205C87.535 21.1591 87.4725 21.4394 87.4725 21.7614V27H85.0521ZM103.623 27.1705C102.725 27.1705 101.953 26.9886 101.305 26.625C100.661 26.2576 100.165 25.7386 99.8163 25.0682C99.4678 24.3939 99.2936 23.5966 99.2936 22.6761C99.2936 21.7784 99.4678 20.9905 99.8163 20.3125C100.165 19.6345 100.655 19.1061 101.288 18.7273C101.924 18.3485 102.67 18.1591 103.527 18.1591C104.102 18.1591 104.638 18.2519 105.134 18.4375C105.634 18.6193 106.07 18.8939 106.441 19.2614C106.816 19.6288 107.108 20.0909 107.316 20.6477C107.525 21.2008 107.629 21.8485 107.629 22.5909V23.2557H100.259V21.7557H105.35C105.35 21.4072 105.275 21.0985 105.123 20.8295C104.972 20.5606 104.761 20.3504 104.492 20.1989C104.227 20.0436 103.919 19.9659 103.566 19.9659C103.199 19.9659 102.873 20.0511 102.589 20.2216C102.309 20.3883 102.089 20.6136 101.93 20.8977C101.771 21.178 101.689 21.4905 101.686 21.8352V23.2614C101.686 23.6932 101.765 24.0663 101.924 24.3807C102.087 24.6951 102.316 24.9375 102.612 25.108C102.907 25.2784 103.258 25.3636 103.663 25.3636C103.932 25.3636 104.178 25.3258 104.402 25.25C104.625 25.1742 104.816 25.0606 104.975 24.9091C105.134 24.7576 105.256 24.572 105.339 24.3523L107.578 24.5C107.464 25.0379 107.231 25.5076 106.879 25.9091C106.53 26.3068 106.08 26.6174 105.527 26.8409C104.977 27.0606 104.343 27.1705 103.623 27.1705ZM109.208 27V18.2727H111.555V19.7955H111.646C111.805 19.2538 112.072 18.8447 112.447 18.5682C112.822 18.2879 113.254 18.1477 113.742 18.1477C113.864 18.1477 113.994 18.1553 114.134 18.1705C114.275 18.1856 114.398 18.2064 114.504 18.233V20.3807C114.39 20.3466 114.233 20.3163 114.032 20.2898C113.831 20.2633 113.648 20.25 113.481 20.25C113.125 20.25 112.807 20.3277 112.527 20.483C112.25 20.6345 112.03 20.8466 111.867 21.1193C111.708 21.392 111.629 21.7064 111.629 22.0625V27H109.208ZM119.292 27.1705C118.398 27.1705 117.629 26.9811 116.985 26.6023C116.345 26.2197 115.853 25.6894 115.508 25.0114C115.167 24.3333 114.997 23.553 114.997 22.6705C114.997 21.7765 115.169 20.9924 115.514 20.3182C115.862 19.6402 116.357 19.1117 116.997 18.733C117.637 18.3504 118.398 18.1591 119.281 18.1591C120.042 18.1591 120.709 18.2973 121.281 18.5739C121.853 18.8504 122.305 19.2386 122.639 19.7386C122.972 20.2386 123.156 20.8258 123.19 21.5H120.906C120.841 21.0644 120.671 20.714 120.394 20.4489C120.122 20.1799 119.764 20.0455 119.321 20.0455C118.946 20.0455 118.618 20.1477 118.338 20.3523C118.061 20.553 117.845 20.8466 117.69 21.233C117.535 21.6193 117.457 22.0871 117.457 22.6364C117.457 23.1932 117.533 23.6667 117.684 24.0568C117.839 24.447 118.057 24.7443 118.338 24.9489C118.618 25.1534 118.946 25.2557 119.321 25.2557C119.597 25.2557 119.845 25.1989 120.065 25.0852C120.288 24.9716 120.472 24.8068 120.616 24.5909C120.764 24.3712 120.86 24.108 120.906 23.8011H123.19C123.152 24.4678 122.97 25.0549 122.644 25.5625C122.322 26.0663 121.877 26.4602 121.309 26.7443C120.741 27.0284 120.069 27.1705 119.292 27.1705ZM128.717 27.1705C127.819 27.1705 127.046 26.9886 126.399 26.625C125.755 26.2576 125.259 25.7386 124.91 25.0682C124.562 24.3939 124.387 23.5966 124.387 22.6761C124.387 21.7784 124.562 20.9905 124.91 20.3125C125.259 19.6345 125.749 19.1061 126.382 18.7273C127.018 18.3485 127.764 18.1591 128.62 18.1591C129.196 18.1591 129.732 18.2519 130.228 18.4375C130.728 18.6193 131.164 18.8939 131.535 19.2614C131.91 19.6288 132.202 20.0909 132.41 20.6477C132.618 21.2008 132.723 21.8485 132.723 22.5909V23.2557H125.353V21.7557H130.444C130.444 21.4072 130.368 21.0985 130.217 20.8295C130.065 20.5606 129.855 20.3504 129.586 20.1989C129.321 20.0436 129.012 19.9659 128.66 19.9659C128.293 19.9659 127.967 20.0511 127.683 20.2216C127.402 20.3883 127.183 20.6136 127.024 20.8977C126.865 21.178 126.783 21.4905 126.779 21.8352V23.2614C126.779 23.6932 126.859 24.0663 127.018 24.3807C127.181 24.6951 127.41 24.9375 127.705 25.108C128.001 25.2784 128.351 25.3636 128.757 25.3636C129.026 25.3636 129.272 25.3258 129.495 25.25C129.719 25.1742 129.91 25.0606 130.069 24.9091C130.228 24.7576 130.349 24.572 130.433 24.3523L132.671 24.5C132.558 25.0379 132.325 25.5076 131.973 25.9091C131.624 26.3068 131.173 26.6174 130.62 26.8409C130.071 27.0606 129.437 27.1705 128.717 27.1705Z" fill="#0A0D12"/>
</svg>
