<svg width="80" height="80" viewBox="0 0 80 80" fill="none" xmlns="http://www.w3.org/2000/svg">
<rect width="80" height="80" rx="40" fill="#BEFED5"/>
<rect x="8.88867" y="8.88889" width="62.2222" height="62.2222" rx="31.1111" fill="#49D77D"/>
<circle cx="40.5551" cy="40.5555" r="22.7778" fill="white"/>
<mask id="mask0_24432_4896" style="mask-type:luminance" maskUnits="userSpaceOnUse" x="15" y="15" width="50" height="50">
<path d="M39.9996 62.2222C42.9184 62.2258 45.8091 61.6527 48.5057 60.5356C51.2023 59.4186 53.6516 57.7798 55.7129 55.7133C57.7794 53.652 59.4182 51.2027 60.5352 48.5061C61.6522 45.8095 62.2254 42.9188 62.2218 40C62.2254 37.0812 61.6522 34.1905 60.5352 31.4939C59.4182 28.7973 57.7794 26.348 55.7129 24.2867C53.6516 22.2202 51.2023 20.5814 48.5057 19.4644C45.8091 18.3474 42.9184 17.7742 39.9996 17.7778C37.0808 17.7742 34.1901 18.3474 31.4935 19.4644C28.7969 20.5814 26.3475 22.2202 24.2862 24.2867C22.2198 26.348 20.5809 28.7973 19.4639 31.4939C18.3469 34.1905 17.7738 37.0812 17.7774 40C17.7738 42.9188 18.3469 45.8095 19.4639 48.5061C20.5809 51.2027 22.2198 53.652 24.2862 55.7133C26.3475 57.7798 28.7969 59.4186 31.4935 60.5356C34.1901 61.6527 37.0808 62.2258 39.9996 62.2222Z" fill="white" stroke="white" stroke-width="4.44444" stroke-linejoin="round"/>
<path d="M31.1113 40L37.778 46.6667L51.1113 33.3333" stroke="black" stroke-width="4.44444" stroke-linecap="round" stroke-linejoin="round"/>
</mask>
<g mask="url(#mask0_24432_4896)">
<path d="M13.332 13.3333H66.6653V66.6666H13.332V13.3333Z" fill="#26C660"/>
</g>
</svg>
