<svg width="25" height="24" viewBox="0 0 25 24" fill="none" xmlns="http://www.w3.org/2000/svg">
<path d="M2.6665 2H3.97267C4.21869 2 4.3417 2 4.44069 2.04524C4.52792 2.08511 4.60185 2.14922 4.65365 2.22995C4.71244 2.32154 4.72984 2.44332 4.76463 2.68686L5.23793 6M5.23793 6L6.28982 13.7314C6.42331 14.7125 6.49005 15.2031 6.7246 15.5723C6.93128 15.8977 7.22759 16.1564 7.57786 16.3174C7.97537 16.5 8.47045 16.5 9.46061 16.5H18.0185C18.961 16.5 19.4323 16.5 19.8175 16.3304C20.1571 16.1809 20.4484 15.9398 20.6588 15.6342C20.8974 15.2876 20.9856 14.8247 21.162 13.8988L22.4856 6.94969C22.5477 6.62381 22.5787 6.46087 22.5337 6.3335C22.4943 6.22177 22.4164 6.12768 22.3141 6.06802C22.1974 6 22.0315 6 21.6997 6H5.23793ZM10.6665 21C10.6665 21.5523 10.2188 22 9.6665 22C9.11422 22 8.6665 21.5523 8.6665 21C8.6665 20.4477 9.11422 20 9.6665 20C10.2188 20 10.6665 20.4477 10.6665 21ZM18.6665 21C18.6665 21.5523 18.2188 22 17.6665 22C17.1142 22 16.6665 21.5523 16.6665 21C16.6665 20.4477 17.1142 20 17.6665 20C18.2188 20 18.6665 20.4477 18.6665 21Z" stroke="#0A0D12" stroke-width="2" stroke-linecap="round" stroke-linejoin="round"/>
</svg>
