<svg width="40" height="40" viewBox="0 0 40 40" fill="none" xmlns="http://www.w3.org/2000/svg">
<path d="M20 0.5C30.7696 0.5 39.5 9.23045 39.5 20C39.5 30.7696 30.7696 39.5 20 39.5C9.23045 39.5 0.5 30.7696 0.5 20C0.5 9.23045 9.23045 0.5 20 0.5Z" stroke="#D5D7DA"/>
<path d="M16.6713 20.0512C16.6713 18.2087 18.1641 16.7147 20.0061 16.7147C21.8481 16.7147 23.3417 18.2087 23.3417 20.0512C23.3417 21.8938 21.8481 23.3878 20.0061 23.3878C18.1641 23.3878 16.6713 21.8938 16.6713 20.0512ZM14.8682 20.0512C14.8682 22.8898 17.1684 25.1907 20.0061 25.1907C22.8438 25.1907 25.1441 22.8898 25.1441 20.0512C25.1441 17.2127 22.8438 14.9118 20.0061 14.9118C17.1684 14.9118 14.8682 17.2127 14.8682 20.0512ZM24.1468 14.708C24.1467 14.9456 24.217 15.1778 24.3489 15.3754C24.4807 15.5729 24.6682 15.727 24.8875 15.818C25.1069 15.909 25.3483 15.9328 25.5813 15.8866C25.8142 15.8403 26.0282 15.726 26.1962 15.5581C26.3642 15.3902 26.4786 15.1763 26.525 14.9433C26.5715 14.7103 26.5478 14.4688 26.457 14.2493C26.3662 14.0298 26.2124 13.8422 26.015 13.7101C25.8176 13.5781 25.5854 13.5075 25.348 13.5074H25.3475C25.0292 13.5076 24.7239 13.6341 24.4988 13.8592C24.2736 14.0843 24.147 14.3896 24.1468 14.708ZM15.9637 28.1982C14.9882 28.1538 14.4579 27.9913 14.1055 27.8539C13.6384 27.672 13.3051 27.4553 12.9546 27.1053C12.6042 26.7552 12.3872 26.4221 12.2062 25.9548C12.0688 25.6025 11.9063 25.0719 11.862 24.0961C11.8134 23.0411 11.8038 22.7242 11.8038 20.0513C11.8038 17.3785 11.8142 17.0624 11.862 16.0065C11.9064 15.0307 12.0701 14.5012 12.2062 14.1478C12.388 13.6805 12.6046 13.3471 12.9546 12.9966C13.3046 12.646 13.6376 12.429 14.1055 12.2479C14.4578 12.1105 14.9882 11.948 15.9637 11.9036C17.0184 11.8551 17.3352 11.8454 20.0061 11.8454C22.677 11.8454 22.9942 11.8559 24.0497 11.9036C25.0253 11.9481 25.5547 12.1118 25.9079 12.2479C26.3751 12.429 26.7084 12.6465 27.0588 12.9966C27.4093 13.3467 27.6254 13.6805 27.8073 14.1478C27.9446 14.5002 28.1071 15.0307 28.1515 16.0065C28.2 17.0624 28.2097 17.3785 28.2097 20.0513C28.2097 22.7242 28.2 23.0402 28.1515 24.0961C28.1071 25.0719 27.9438 25.6023 27.8073 25.9548C27.6254 26.4221 27.4088 26.7555 27.0588 27.1053C26.7089 27.455 26.3751 27.672 25.9079 27.8539C25.5557 27.9913 25.0253 28.1539 24.0497 28.1982C22.995 28.2468 22.6782 28.2565 20.0061 28.2565C17.334 28.2565 17.0181 28.2468 15.9637 28.1982ZM15.8808 10.103C14.8156 10.1515 14.0878 10.3204 13.4521 10.5679C12.7938 10.8234 12.2365 11.1662 11.6796 11.7223C11.1227 12.2785 10.7809 12.8368 10.5255 13.4953C10.2781 14.1316 10.1092 14.8593 10.0607 15.9248C10.0114 16.992 10.0001 17.3332 10.0001 20.0512C10.0001 22.7693 10.0114 23.1105 10.0607 24.1777C10.1092 25.2433 10.2781 25.9709 10.5255 26.6071C10.7809 27.2653 11.1228 27.8242 11.6796 28.3802C12.2364 28.9361 12.7938 29.2784 13.4521 29.5346C14.089 29.782 14.8156 29.951 15.8808 29.9995C16.9483 30.048 17.2888 30.0601 20.0061 30.0601C22.7234 30.0601 23.0645 30.0488 24.1314 29.9995C25.1967 29.951 25.9241 29.782 26.5601 29.5346C27.218 29.2784 27.7757 28.9363 28.3326 28.3802C28.8895 27.824 29.2306 27.2653 29.4868 26.6071C29.7341 25.9709 29.9038 25.2432 29.9515 24.1777C30 23.1097 30.0113 22.7693 30.0113 20.0512C30.0113 17.3332 30 16.992 29.9515 15.9248C29.903 14.8592 29.7341 14.1312 29.4868 13.4953C29.2306 12.8372 28.8886 12.2794 28.3326 11.7223C27.7766 11.1653 27.218 10.8234 26.5609 10.5679C25.9241 10.3204 25.1966 10.1507 24.1322 10.103C23.0653 10.0544 22.7242 10.0424 20.0069 10.0424C17.2896 10.0424 16.9483 10.0536 15.8808 10.103Z" fill="#418AEA"/>
</svg>
