<svg width="40" height="40" viewBox="0 0 40 40" fill="none" xmlns="http://www.w3.org/2000/svg">
<path d="M20 0.5C30.7696 0.5 39.5 9.23045 39.5 20C39.5 30.7696 30.7696 39.5 20 39.5C9.23045 39.5 0.5 30.7696 0.5 20C0.5 9.23045 9.23045 0.5 20 0.5Z" stroke="#D5D7DA"/>
<path d="M15.3989 28.1054V17.3002H11.8106V28.1054H15.3993H15.3989ZM13.6055 15.8252C14.8566 15.8252 15.6354 14.9955 15.6354 13.9586C15.612 12.8981 14.8566 12.0916 13.6293 12.0916C12.4012 12.0916 11.5991 12.8981 11.5991 13.9585C11.5991 14.9954 12.3777 15.8251 13.582 15.8251H13.6052L13.6055 15.8252ZM17.3851 28.1054H20.9731V22.072C20.9731 21.7495 20.9965 21.4261 21.0913 21.1958C21.3505 20.5503 21.9409 19.8821 22.9324 19.8821C24.2305 19.8821 24.7501 20.8729 24.7501 22.3256V28.1054H28.338V21.9101C28.338 18.5913 26.568 17.0469 24.2073 17.0469C22.2718 17.0469 21.4217 18.1297 20.9495 18.8671H20.9733V17.3006H17.3853C17.4321 18.3143 17.385 28.1058 17.385 28.1058L17.3851 28.1054Z" fill="#418AEA"/>
</svg>
